# xmcd CD database file
#
# Track frame offsets:
#	150
#	12270
#	36467
#	55193
#	88489
#	106715
#	116814
#	136233
#	161476
#	180345
#	208605
#	227096
#	235434
#	255054
#	266011
#	278225
#	317176
#
# Disc length: 4386 seconds
#
# Revision: 0
# Processed by: cddbd v1.5.2PL0 Copyright (c) Steve Scherf et al.
# Submitted via: CDex 1.70beta2
#
DISCID=ea112011
DTITLE=Various Artist - The Very Best of Latin Jazz
DYEAR=2007
DGENRE=Jazz
TTITLE0=Quincy Jones and His Orchestra - Soul Bossa Nova
TTITLE1=Astrud Gilberto - The Girl From Ipanema
TTITLE2=José Feliciano - California Dreaming
TTITLE3=Tito Puente - Oye Como Va
TTITLE4=Ricky Martin - Livin' La Vida Loca
TTITLE5=Edmundo Ros and His Orchestra - Light My Fire
TTITLE6=Gloria Estefan - Dr. Beat
TTITLE7=Tania Maria - Come With Me
TTITLE8=Peter Cincotti - Sway
TTITLE9=Cal Tjader - Soul Sauce
TTITLE10=Johnny Almond - Tales of Junior
TTITLE11=The Puppini Sisters - Tu Vo Fa L'Americano
TTITLE12=Tania Maria - Yatra-Tá
TTITLE13=Machito Orchestra - Guaglione
TTITLE14=Slim Gaillard - Yo, Yo, Yo
TTITLE15=Willie Bobo - La Descarga Del Bobo
TTITLE16=Sergio Mendes and Brasil '66 - Mas Que Nada
EXTD=YEAR: 2007
EXTT0=
EXTT1=
EXTT2=
EXTT3=
EXTT4=
EXTT5=
EXTT6=
EXTT7=
EXTT8=
EXTT9=
EXTT10=
EXTT11=
EXTT12=
EXTT13=
EXTT14=
EXTT15=
EXTT16=
PLAYORDER=
